<mxfile host="app.diagrams.net" modified="2023-04-10T15:17:26.680Z" agent="Mozilla/5.0 (Windows NT 10.0; Win64; x64) AppleWebKit/537.36 (KHTML, like Gecko) Chrome/111.0.0.0 Safari/537.36" etag="xTrPsq6oi2kopzgLO27y" version="21.1.5" type="github">
  <diagram id="4R4UzERNiVHyKOqKWShv" name="Page-1">
    <mxGraphModel dx="4014" dy="2166" grid="1" gridSize="10" guides="1" tooltips="1" connect="1" arrows="1" fold="1" page="1" pageScale="1" pageWidth="850" pageHeight="1100" math="0" shadow="0">
      <root>
        <mxCell id="0" />
        <mxCell id="1" parent="0" />
        <mxCell id="f7bFVLpP6FKDPt4WR5Cf-1" value="Post" style="swimlane;fontStyle=0;childLayout=stackLayout;horizontal=1;startSize=30;horizontalStack=0;resizeParent=1;resizeParentMax=0;resizeLast=0;collapsible=1;marginBottom=0;whiteSpace=wrap;html=1;" parent="1" vertex="1">
          <mxGeometry x="-440" y="230" width="140" height="120" as="geometry" />
        </mxCell>
        <mxCell id="f7bFVLpP6FKDPt4WR5Cf-2" value="id" style="text;strokeColor=none;fillColor=none;align=left;verticalAlign=middle;spacingLeft=4;spacingRight=4;overflow=hidden;points=[[0,0.5],[1,0.5]];portConstraint=eastwest;rotatable=0;whiteSpace=wrap;html=1;" parent="f7bFVLpP6FKDPt4WR5Cf-1" vertex="1">
          <mxGeometry y="30" width="140" height="30" as="geometry" />
        </mxCell>
        <mxCell id="f7bFVLpP6FKDPt4WR5Cf-3" value="stage" style="text;strokeColor=none;fillColor=none;align=left;verticalAlign=middle;spacingLeft=4;spacingRight=4;overflow=hidden;points=[[0,0.5],[1,0.5]];portConstraint=eastwest;rotatable=0;whiteSpace=wrap;html=1;" parent="f7bFVLpP6FKDPt4WR5Cf-1" vertex="1">
          <mxGeometry y="60" width="140" height="30" as="geometry" />
        </mxCell>
        <mxCell id="f7bFVLpP6FKDPt4WR5Cf-4" value="created_time" style="text;strokeColor=none;fillColor=none;align=left;verticalAlign=middle;spacingLeft=4;spacingRight=4;overflow=hidden;points=[[0,0.5],[1,0.5]];portConstraint=eastwest;rotatable=0;whiteSpace=wrap;html=1;" parent="f7bFVLpP6FKDPt4WR5Cf-1" vertex="1">
          <mxGeometry y="90" width="140" height="30" as="geometry" />
        </mxCell>
        <mxCell id="f7bFVLpP6FKDPt4WR5Cf-5" value="Subject" style="swimlane;fontStyle=0;childLayout=stackLayout;horizontal=1;startSize=30;horizontalStack=0;resizeParent=1;resizeParentMax=0;resizeLast=0;collapsible=1;marginBottom=0;whiteSpace=wrap;html=1;" parent="1" vertex="1">
          <mxGeometry x="-1110" y="520" width="140" height="120" as="geometry" />
        </mxCell>
        <mxCell id="f7bFVLpP6FKDPt4WR5Cf-6" value="id" style="text;strokeColor=none;fillColor=none;align=left;verticalAlign=middle;spacingLeft=4;spacingRight=4;overflow=hidden;points=[[0,0.5],[1,0.5]];portConstraint=eastwest;rotatable=0;whiteSpace=wrap;html=1;" parent="f7bFVLpP6FKDPt4WR5Cf-5" vertex="1">
          <mxGeometry y="30" width="140" height="30" as="geometry" />
        </mxCell>
        <mxCell id="f7bFVLpP6FKDPt4WR5Cf-7" value="parent" style="text;strokeColor=none;fillColor=none;align=left;verticalAlign=middle;spacingLeft=4;spacingRight=4;overflow=hidden;points=[[0,0.5],[1,0.5]];portConstraint=eastwest;rotatable=0;whiteSpace=wrap;html=1;" parent="f7bFVLpP6FKDPt4WR5Cf-5" vertex="1">
          <mxGeometry y="60" width="140" height="30" as="geometry" />
        </mxCell>
        <mxCell id="f7bFVLpP6FKDPt4WR5Cf-8" value="name" style="text;strokeColor=none;fillColor=none;align=left;verticalAlign=middle;spacingLeft=4;spacingRight=4;overflow=hidden;points=[[0,0.5],[1,0.5]];portConstraint=eastwest;rotatable=0;whiteSpace=wrap;html=1;" parent="f7bFVLpP6FKDPt4WR5Cf-5" vertex="1">
          <mxGeometry y="90" width="140" height="30" as="geometry" />
        </mxCell>
        <mxCell id="f7bFVLpP6FKDPt4WR5Cf-9" value="Review" style="swimlane;fontStyle=0;childLayout=stackLayout;horizontal=1;startSize=30;horizontalStack=0;resizeParent=1;resizeParentMax=0;resizeLast=0;collapsible=1;marginBottom=0;whiteSpace=wrap;html=1;" parent="1" vertex="1">
          <mxGeometry x="-540" y="530.21" width="140" height="180" as="geometry" />
        </mxCell>
        <mxCell id="f7bFVLpP6FKDPt4WR5Cf-10" value="id" style="text;strokeColor=none;fillColor=none;align=left;verticalAlign=middle;spacingLeft=4;spacingRight=4;overflow=hidden;points=[[0,0.5],[1,0.5]];portConstraint=eastwest;rotatable=0;whiteSpace=wrap;html=1;" parent="f7bFVLpP6FKDPt4WR5Cf-9" vertex="1">
          <mxGeometry y="30" width="140" height="30" as="geometry" />
        </mxCell>
        <mxCell id="f7bFVLpP6FKDPt4WR5Cf-11" value="post" style="text;strokeColor=none;fillColor=none;align=left;verticalAlign=middle;spacingLeft=4;spacingRight=4;overflow=hidden;points=[[0,0.5],[1,0.5]];portConstraint=eastwest;rotatable=0;whiteSpace=wrap;html=1;" parent="f7bFVLpP6FKDPt4WR5Cf-9" vertex="1">
          <mxGeometry y="60" width="140" height="30" as="geometry" />
        </mxCell>
        <mxCell id="f7bFVLpP6FKDPt4WR5Cf-12" value="user" style="text;strokeColor=none;fillColor=none;align=left;verticalAlign=middle;spacingLeft=4;spacingRight=4;overflow=hidden;points=[[0,0.5],[1,0.5]];portConstraint=eastwest;rotatable=0;whiteSpace=wrap;html=1;" parent="f7bFVLpP6FKDPt4WR5Cf-9" vertex="1">
          <mxGeometry y="90" width="140" height="30" as="geometry" />
        </mxCell>
        <mxCell id="wojKNktllQG_u3DR9HlF-21" value="created_time" style="text;strokeColor=none;fillColor=none;align=left;verticalAlign=middle;spacingLeft=4;spacingRight=4;overflow=hidden;points=[[0,0.5],[1,0.5]];portConstraint=eastwest;rotatable=0;whiteSpace=wrap;html=1;" parent="f7bFVLpP6FKDPt4WR5Cf-9" vertex="1">
          <mxGeometry y="120" width="140" height="30" as="geometry" />
        </mxCell>
        <mxCell id="wojKNktllQG_u3DR9HlF-22" value="content" style="text;strokeColor=none;fillColor=none;align=left;verticalAlign=middle;spacingLeft=4;spacingRight=4;overflow=hidden;points=[[0,0.5],[1,0.5]];portConstraint=eastwest;rotatable=0;whiteSpace=wrap;html=1;" parent="f7bFVLpP6FKDPt4WR5Cf-9" vertex="1">
          <mxGeometry y="150" width="140" height="30" as="geometry" />
        </mxCell>
        <mxCell id="f7bFVLpP6FKDPt4WR5Cf-13" value="TimeRange" style="swimlane;fontStyle=0;childLayout=stackLayout;horizontal=1;startSize=30;horizontalStack=0;resizeParent=1;resizeParentMax=0;resizeLast=0;collapsible=1;marginBottom=0;whiteSpace=wrap;html=1;" parent="1" vertex="1">
          <mxGeometry x="-280" y="520" width="140" height="150" as="geometry" />
        </mxCell>
        <mxCell id="f7bFVLpP6FKDPt4WR5Cf-14" value="id" style="text;strokeColor=none;fillColor=none;align=left;verticalAlign=middle;spacingLeft=4;spacingRight=4;overflow=hidden;points=[[0,0.5],[1,0.5]];portConstraint=eastwest;rotatable=0;whiteSpace=wrap;html=1;" parent="f7bFVLpP6FKDPt4WR5Cf-13" vertex="1">
          <mxGeometry y="30" width="140" height="30" as="geometry" />
        </mxCell>
        <mxCell id="f7bFVLpP6FKDPt4WR5Cf-15" value="begin" style="text;strokeColor=none;fillColor=none;align=left;verticalAlign=middle;spacingLeft=4;spacingRight=4;overflow=hidden;points=[[0,0.5],[1,0.5]];portConstraint=eastwest;rotatable=0;whiteSpace=wrap;html=1;" parent="f7bFVLpP6FKDPt4WR5Cf-13" vertex="1">
          <mxGeometry y="60" width="140" height="30" as="geometry" />
        </mxCell>
        <mxCell id="f7bFVLpP6FKDPt4WR5Cf-16" value="date" style="text;strokeColor=none;fillColor=none;align=left;verticalAlign=middle;spacingLeft=4;spacingRight=4;overflow=hidden;points=[[0,0.5],[1,0.5]];portConstraint=eastwest;rotatable=0;whiteSpace=wrap;html=1;" parent="f7bFVLpP6FKDPt4WR5Cf-13" vertex="1">
          <mxGeometry y="90" width="140" height="30" as="geometry" />
        </mxCell>
        <mxCell id="yP_wBHzrBIjpdv_ILNyv-7" value="begin" style="text;strokeColor=none;fillColor=none;align=left;verticalAlign=middle;spacingLeft=4;spacingRight=4;overflow=hidden;points=[[0,0.5],[1,0.5]];portConstraint=eastwest;rotatable=0;whiteSpace=wrap;html=1;" parent="f7bFVLpP6FKDPt4WR5Cf-13" vertex="1">
          <mxGeometry y="120" width="140" height="30" as="geometry" />
        </mxCell>
        <mxCell id="f7bFVLpP6FKDPt4WR5Cf-17" value="User" style="swimlane;fontStyle=0;childLayout=stackLayout;horizontal=1;startSize=30;horizontalStack=0;resizeParent=1;resizeParentMax=0;resizeLast=0;collapsible=1;marginBottom=0;whiteSpace=wrap;html=1;" parent="1" vertex="1">
          <mxGeometry x="-400" y="790" width="140" height="120" as="geometry" />
        </mxCell>
        <mxCell id="f7bFVLpP6FKDPt4WR5Cf-18" value="id" style="text;strokeColor=none;fillColor=none;align=left;verticalAlign=middle;spacingLeft=4;spacingRight=4;overflow=hidden;points=[[0,0.5],[1,0.5]];portConstraint=eastwest;rotatable=0;whiteSpace=wrap;html=1;" parent="f7bFVLpP6FKDPt4WR5Cf-17" vertex="1">
          <mxGeometry y="30" width="140" height="30" as="geometry" />
        </mxCell>
        <mxCell id="f7bFVLpP6FKDPt4WR5Cf-19" value="active" style="text;strokeColor=none;fillColor=none;align=left;verticalAlign=middle;spacingLeft=4;spacingRight=4;overflow=hidden;points=[[0,0.5],[1,0.5]];portConstraint=eastwest;rotatable=0;whiteSpace=wrap;html=1;" parent="f7bFVLpP6FKDPt4WR5Cf-17" vertex="1">
          <mxGeometry y="60" width="140" height="30" as="geometry" />
        </mxCell>
        <mxCell id="f7bFVLpP6FKDPt4WR5Cf-20" value="Item 3" style="text;strokeColor=none;fillColor=none;align=left;verticalAlign=middle;spacingLeft=4;spacingRight=4;overflow=hidden;points=[[0,0.5],[1,0.5]];portConstraint=eastwest;rotatable=0;whiteSpace=wrap;html=1;" parent="f7bFVLpP6FKDPt4WR5Cf-17" vertex="1">
          <mxGeometry y="90" width="140" height="30" as="geometry" />
        </mxCell>
        <mxCell id="f7bFVLpP6FKDPt4WR5Cf-21" value="Cert" style="swimlane;fontStyle=0;childLayout=stackLayout;horizontal=1;startSize=30;horizontalStack=0;resizeParent=1;resizeParentMax=0;resizeLast=0;collapsible=1;marginBottom=0;whiteSpace=wrap;html=1;" parent="1" vertex="1">
          <mxGeometry x="-780" y="1010" width="140" height="120" as="geometry" />
        </mxCell>
        <mxCell id="f7bFVLpP6FKDPt4WR5Cf-22" value="id" style="text;strokeColor=none;fillColor=none;align=left;verticalAlign=middle;spacingLeft=4;spacingRight=4;overflow=hidden;points=[[0,0.5],[1,0.5]];portConstraint=eastwest;rotatable=0;whiteSpace=wrap;html=1;" parent="f7bFVLpP6FKDPt4WR5Cf-21" vertex="1">
          <mxGeometry y="30" width="140" height="30" as="geometry" />
        </mxCell>
        <mxCell id="f7bFVLpP6FKDPt4WR5Cf-23" value="type" style="text;strokeColor=none;fillColor=none;align=left;verticalAlign=middle;spacingLeft=4;spacingRight=4;overflow=hidden;points=[[0,0.5],[1,0.5]];portConstraint=eastwest;rotatable=0;whiteSpace=wrap;html=1;" parent="f7bFVLpP6FKDPt4WR5Cf-21" vertex="1">
          <mxGeometry y="60" width="140" height="30" as="geometry" />
        </mxCell>
        <mxCell id="f7bFVLpP6FKDPt4WR5Cf-24" value="Item 3" style="text;strokeColor=none;fillColor=none;align=left;verticalAlign=middle;spacingLeft=4;spacingRight=4;overflow=hidden;points=[[0,0.5],[1,0.5]];portConstraint=eastwest;rotatable=0;whiteSpace=wrap;html=1;" parent="f7bFVLpP6FKDPt4WR5Cf-21" vertex="1">
          <mxGeometry y="90" width="140" height="30" as="geometry" />
        </mxCell>
        <mxCell id="f7bFVLpP6FKDPt4WR5Cf-25" value="Profile" style="swimlane;fontStyle=0;childLayout=stackLayout;horizontal=1;startSize=30;horizontalStack=0;resizeParent=1;resizeParentMax=0;resizeLast=0;collapsible=1;marginBottom=0;whiteSpace=wrap;html=1;" parent="1" vertex="1">
          <mxGeometry x="-540" y="1010" width="140" height="120" as="geometry" />
        </mxCell>
        <mxCell id="f7bFVLpP6FKDPt4WR5Cf-44" value="Item 1" style="text;strokeColor=none;fillColor=none;align=left;verticalAlign=middle;spacingLeft=4;spacingRight=4;overflow=hidden;points=[[0,0.5],[1,0.5]];portConstraint=eastwest;rotatable=0;whiteSpace=wrap;html=1;" parent="f7bFVLpP6FKDPt4WR5Cf-25" vertex="1">
          <mxGeometry y="30" width="140" height="30" as="geometry" />
        </mxCell>
        <mxCell id="f7bFVLpP6FKDPt4WR5Cf-26" value="Item 1" style="text;strokeColor=none;fillColor=none;align=left;verticalAlign=middle;spacingLeft=4;spacingRight=4;overflow=hidden;points=[[0,0.5],[1,0.5]];portConstraint=eastwest;rotatable=0;whiteSpace=wrap;html=1;" parent="f7bFVLpP6FKDPt4WR5Cf-25" vertex="1">
          <mxGeometry y="60" width="140" height="30" as="geometry" />
        </mxCell>
        <mxCell id="f7bFVLpP6FKDPt4WR5Cf-27" value="Item 2" style="text;strokeColor=none;fillColor=none;align=left;verticalAlign=middle;spacingLeft=4;spacingRight=4;overflow=hidden;points=[[0,0.5],[1,0.5]];portConstraint=eastwest;rotatable=0;whiteSpace=wrap;html=1;" parent="f7bFVLpP6FKDPt4WR5Cf-25" vertex="1">
          <mxGeometry y="90" width="140" height="30" as="geometry" />
        </mxCell>
        <mxCell id="f7bFVLpP6FKDPt4WR5Cf-31" value="" style="shape=link;html=1;rounded=0;exitX=0.522;exitY=1.116;exitDx=0;exitDy=0;entryX=0.5;entryY=0;entryDx=0;entryDy=0;exitPerimeter=0;" parent="1" source="f7bFVLpP6FKDPt4WR5Cf-20" target="f7bFVLpP6FKDPt4WR5Cf-25" edge="1">
          <mxGeometry relative="1" as="geometry">
            <mxPoint x="520" y="560.21" as="sourcePoint" />
            <mxPoint x="680" y="560.21" as="targetPoint" />
          </mxGeometry>
        </mxCell>
        <mxCell id="f7bFVLpP6FKDPt4WR5Cf-32" value="1" style="resizable=0;html=1;align=right;verticalAlign=bottom;" parent="f7bFVLpP6FKDPt4WR5Cf-31" connectable="0" vertex="1">
          <mxGeometry x="1" relative="1" as="geometry" />
        </mxCell>
        <mxCell id="f7bFVLpP6FKDPt4WR5Cf-33" value="" style="shape=link;html=1;rounded=0;entryX=0.502;entryY=1.13;entryDx=0;entryDy=0;entryPerimeter=0;" parent="1" target="f7bFVLpP6FKDPt4WR5Cf-66" edge="1">
          <mxGeometry relative="1" as="geometry">
            <mxPoint x="-400" y="790" as="sourcePoint" />
            <mxPoint x="650" y="450.00000000000006" as="targetPoint" />
          </mxGeometry>
        </mxCell>
        <mxCell id="f7bFVLpP6FKDPt4WR5Cf-34" value="N" style="resizable=0;html=1;align=right;verticalAlign=bottom;" parent="f7bFVLpP6FKDPt4WR5Cf-33" connectable="0" vertex="1">
          <mxGeometry x="1" relative="1" as="geometry" />
        </mxCell>
        <mxCell id="f7bFVLpP6FKDPt4WR5Cf-35" value="" style="shape=link;html=1;rounded=0;entryX=0.5;entryY=0;entryDx=0;entryDy=0;exitX=0.506;exitY=0.993;exitDx=0;exitDy=0;exitPerimeter=0;" parent="1" source="f7bFVLpP6FKDPt4WR5Cf-4" target="f7bFVLpP6FKDPt4WR5Cf-17" edge="1">
          <mxGeometry relative="1" as="geometry">
            <mxPoint x="250" y="240" as="sourcePoint" />
            <mxPoint x="410" y="240" as="targetPoint" />
          </mxGeometry>
        </mxCell>
        <mxCell id="f7bFVLpP6FKDPt4WR5Cf-36" value="M" style="resizable=0;html=1;align=left;verticalAlign=bottom;" parent="f7bFVLpP6FKDPt4WR5Cf-35" connectable="0" vertex="1">
          <mxGeometry x="-1" relative="1" as="geometry" />
        </mxCell>
        <mxCell id="f7bFVLpP6FKDPt4WR5Cf-37" value="N" style="resizable=0;html=1;align=right;verticalAlign=bottom;" parent="f7bFVLpP6FKDPt4WR5Cf-35" connectable="0" vertex="1">
          <mxGeometry x="1" relative="1" as="geometry" />
        </mxCell>
        <mxCell id="f7bFVLpP6FKDPt4WR5Cf-38" value="" style="shape=link;html=1;rounded=0;" parent="1" edge="1">
          <mxGeometry relative="1" as="geometry">
            <mxPoint x="-710" y="-60.49999999999997" as="sourcePoint" />
            <mxPoint x="-550" y="-60.49999999999997" as="targetPoint" />
          </mxGeometry>
        </mxCell>
        <mxCell id="f7bFVLpP6FKDPt4WR5Cf-39" value="1" style="resizable=0;html=1;align=right;verticalAlign=bottom;" parent="f7bFVLpP6FKDPt4WR5Cf-38" connectable="0" vertex="1">
          <mxGeometry x="1" relative="1" as="geometry" />
        </mxCell>
        <mxCell id="f7bFVLpP6FKDPt4WR5Cf-40" value="" style="shape=link;html=1;rounded=0;exitX=0.506;exitY=1.119;exitDx=0;exitDy=0;exitPerimeter=0;entryX=0.5;entryY=0;entryDx=0;entryDy=0;" parent="1" source="f7bFVLpP6FKDPt4WR5Cf-20" target="f7bFVLpP6FKDPt4WR5Cf-21" edge="1">
          <mxGeometry relative="1" as="geometry">
            <mxPoint x="650" y="700.21" as="sourcePoint" />
            <mxPoint x="810" y="700.21" as="targetPoint" />
          </mxGeometry>
        </mxCell>
        <mxCell id="f7bFVLpP6FKDPt4WR5Cf-41" value="N" style="resizable=0;html=1;align=right;verticalAlign=bottom;" parent="f7bFVLpP6FKDPt4WR5Cf-40" connectable="0" vertex="1">
          <mxGeometry x="1" relative="1" as="geometry" />
        </mxCell>
        <mxCell id="f7bFVLpP6FKDPt4WR5Cf-42" value="" style="shape=link;html=1;rounded=0;exitX=1;exitY=0;exitDx=0;exitDy=0;entryX=0.5;entryY=0.962;entryDx=0;entryDy=0;entryPerimeter=0;" parent="1" source="f7bFVLpP6FKDPt4WR5Cf-17" target="f7bFVLpP6FKDPt4WR5Cf-16" edge="1">
          <mxGeometry relative="1" as="geometry">
            <mxPoint x="435" y="500.21000000000004" as="sourcePoint" />
            <mxPoint x="100" y="660" as="targetPoint" />
          </mxGeometry>
        </mxCell>
        <mxCell id="f7bFVLpP6FKDPt4WR5Cf-43" value="N" style="resizable=0;html=1;align=right;verticalAlign=bottom;" parent="f7bFVLpP6FKDPt4WR5Cf-42" connectable="0" vertex="1">
          <mxGeometry x="1" relative="1" as="geometry" />
        </mxCell>
        <mxCell id="f7bFVLpP6FKDPt4WR5Cf-45" value="" style="shape=link;html=1;rounded=0;entryX=0.5;entryY=0;entryDx=0;entryDy=0;exitX=0.506;exitY=0.993;exitDx=0;exitDy=0;exitPerimeter=0;" parent="1" edge="1">
          <mxGeometry relative="1" as="geometry">
            <mxPoint x="-504.1600000000001" y="-189.99999999999994" as="sourcePoint" />
            <mxPoint x="-505" y="-39.789999999999935" as="targetPoint" />
          </mxGeometry>
        </mxCell>
        <mxCell id="f7bFVLpP6FKDPt4WR5Cf-46" value="M" style="resizable=0;html=1;align=left;verticalAlign=bottom;" parent="f7bFVLpP6FKDPt4WR5Cf-45" connectable="0" vertex="1">
          <mxGeometry x="-1" relative="1" as="geometry" />
        </mxCell>
        <mxCell id="f7bFVLpP6FKDPt4WR5Cf-47" value="N" style="resizable=0;html=1;align=right;verticalAlign=bottom;" parent="f7bFVLpP6FKDPt4WR5Cf-45" connectable="0" vertex="1">
          <mxGeometry x="1" relative="1" as="geometry" />
        </mxCell>
        <mxCell id="f7bFVLpP6FKDPt4WR5Cf-48" value="" style="shape=link;html=1;rounded=0;entryX=0.511;entryY=1.09;entryDx=0;entryDy=0;entryPerimeter=0;exitX=0;exitY=0;exitDx=0;exitDy=0;" parent="1" source="f7bFVLpP6FKDPt4WR5Cf-17" target="wojKNktllQG_u3DR9HlF-22" edge="1">
          <mxGeometry relative="1" as="geometry">
            <mxPoint x="210" y="290" as="sourcePoint" />
            <mxPoint x="370" y="290" as="targetPoint" />
          </mxGeometry>
        </mxCell>
        <mxCell id="f7bFVLpP6FKDPt4WR5Cf-49" value="N" style="resizable=0;html=1;align=right;verticalAlign=bottom;" parent="f7bFVLpP6FKDPt4WR5Cf-48" connectable="0" vertex="1">
          <mxGeometry x="1" relative="1" as="geometry" />
        </mxCell>
        <mxCell id="f7bFVLpP6FKDPt4WR5Cf-56" value="" style="shape=link;html=1;rounded=0;entryX=0.5;entryY=0;entryDx=0;entryDy=0;" parent="1" target="f7bFVLpP6FKDPt4WR5Cf-9" edge="1">
          <mxGeometry relative="1" as="geometry">
            <mxPoint x="-440" y="350" as="sourcePoint" />
            <mxPoint x="760" y="160" as="targetPoint" />
          </mxGeometry>
        </mxCell>
        <mxCell id="f7bFVLpP6FKDPt4WR5Cf-57" value="N" style="resizable=0;html=1;align=right;verticalAlign=bottom;" parent="f7bFVLpP6FKDPt4WR5Cf-56" connectable="0" vertex="1">
          <mxGeometry x="1" relative="1" as="geometry" />
        </mxCell>
        <mxCell id="f7bFVLpP6FKDPt4WR5Cf-58" value="" style="shape=link;html=1;rounded=0;entryX=0.5;entryY=0;entryDx=0;entryDy=0;exitX=0.001;exitY=1.119;exitDx=0;exitDy=0;exitPerimeter=0;" parent="1" source="f7bFVLpP6FKDPt4WR5Cf-4" target="f7bFVLpP6FKDPt4WR5Cf-5" edge="1">
          <mxGeometry relative="1" as="geometry">
            <mxPoint x="600.8399999999999" y="170" as="sourcePoint" />
            <mxPoint x="600" y="320.21000000000004" as="targetPoint" />
          </mxGeometry>
        </mxCell>
        <mxCell id="f7bFVLpP6FKDPt4WR5Cf-59" value="M" style="resizable=0;html=1;align=left;verticalAlign=bottom;" parent="f7bFVLpP6FKDPt4WR5Cf-58" connectable="0" vertex="1">
          <mxGeometry x="-1" relative="1" as="geometry" />
        </mxCell>
        <mxCell id="f7bFVLpP6FKDPt4WR5Cf-60" value="N" style="resizable=0;html=1;align=right;verticalAlign=bottom;" parent="f7bFVLpP6FKDPt4WR5Cf-58" connectable="0" vertex="1">
          <mxGeometry x="1" relative="1" as="geometry" />
        </mxCell>
        <mxCell id="f7bFVLpP6FKDPt4WR5Cf-61" value="" style="shape=link;html=1;rounded=0;entryX=0.5;entryY=0;entryDx=0;entryDy=0;exitX=1.007;exitY=1.148;exitDx=0;exitDy=0;exitPerimeter=0;" parent="1" source="f7bFVLpP6FKDPt4WR5Cf-4" target="f7bFVLpP6FKDPt4WR5Cf-13" edge="1">
          <mxGeometry relative="1" as="geometry">
            <mxPoint x="80" y="270" as="sourcePoint" />
            <mxPoint x="240" y="270" as="targetPoint" />
          </mxGeometry>
        </mxCell>
        <mxCell id="f7bFVLpP6FKDPt4WR5Cf-62" value="N" style="resizable=0;html=1;align=right;verticalAlign=bottom;" parent="f7bFVLpP6FKDPt4WR5Cf-61" connectable="0" vertex="1">
          <mxGeometry x="1" relative="1" as="geometry" />
        </mxCell>
        <mxCell id="f7bFVLpP6FKDPt4WR5Cf-63" value="AppliedTeacher" style="swimlane;fontStyle=0;childLayout=stackLayout;horizontal=1;startSize=30;horizontalStack=0;resizeParent=1;resizeParentMax=0;resizeLast=0;collapsible=1;marginBottom=0;whiteSpace=wrap;html=1;" parent="1" vertex="1">
          <mxGeometry x="-810" y="530.21" width="140" height="120" as="geometry" />
        </mxCell>
        <mxCell id="f7bFVLpP6FKDPt4WR5Cf-64" value="id" style="text;strokeColor=none;fillColor=none;align=left;verticalAlign=middle;spacingLeft=4;spacingRight=4;overflow=hidden;points=[[0,0.5],[1,0.5]];portConstraint=eastwest;rotatable=0;whiteSpace=wrap;html=1;" parent="f7bFVLpP6FKDPt4WR5Cf-63" vertex="1">
          <mxGeometry y="30" width="140" height="30" as="geometry" />
        </mxCell>
        <mxCell id="f7bFVLpP6FKDPt4WR5Cf-65" value="post_id" style="text;strokeColor=none;fillColor=none;align=left;verticalAlign=middle;spacingLeft=4;spacingRight=4;overflow=hidden;points=[[0,0.5],[1,0.5]];portConstraint=eastwest;rotatable=0;whiteSpace=wrap;html=1;" parent="f7bFVLpP6FKDPt4WR5Cf-63" vertex="1">
          <mxGeometry y="60" width="140" height="30" as="geometry" />
        </mxCell>
        <mxCell id="f7bFVLpP6FKDPt4WR5Cf-66" value="teacher_id" style="text;strokeColor=none;fillColor=none;align=left;verticalAlign=middle;spacingLeft=4;spacingRight=4;overflow=hidden;points=[[0,0.5],[1,0.5]];portConstraint=eastwest;rotatable=0;whiteSpace=wrap;html=1;" parent="f7bFVLpP6FKDPt4WR5Cf-63" vertex="1">
          <mxGeometry y="90" width="140" height="30" as="geometry" />
        </mxCell>
        <mxCell id="f7bFVLpP6FKDPt4WR5Cf-67" value="" style="shape=link;html=1;rounded=0;" parent="1" edge="1">
          <mxGeometry relative="1" as="geometry">
            <mxPoint x="-690" y="-159.9999999999999" as="sourcePoint" />
            <mxPoint x="-530" y="-159.9999999999999" as="targetPoint" />
          </mxGeometry>
        </mxCell>
        <mxCell id="f7bFVLpP6FKDPt4WR5Cf-68" value="N" style="resizable=0;html=1;align=right;verticalAlign=bottom;" parent="f7bFVLpP6FKDPt4WR5Cf-67" connectable="0" vertex="1">
          <mxGeometry x="1" relative="1" as="geometry" />
        </mxCell>
        <mxCell id="f7bFVLpP6FKDPt4WR5Cf-69" value="" style="shape=link;html=1;rounded=0;exitX=0;exitY=1;exitDx=0;exitDy=0;" parent="1" source="f7bFVLpP6FKDPt4WR5Cf-1" edge="1">
          <mxGeometry relative="1" as="geometry">
            <mxPoint x="30" y="370.0000000000001" as="sourcePoint" />
            <mxPoint x="-740" y="530" as="targetPoint" />
          </mxGeometry>
        </mxCell>
        <mxCell id="f7bFVLpP6FKDPt4WR5Cf-70" value="N" style="resizable=0;html=1;align=right;verticalAlign=bottom;" parent="f7bFVLpP6FKDPt4WR5Cf-69" connectable="0" vertex="1">
          <mxGeometry x="1" relative="1" as="geometry" />
        </mxCell>
        <mxCell id="wojKNktllQG_u3DR9HlF-1" value="RequestTeaching" style="swimlane;fontStyle=0;childLayout=stackLayout;horizontal=1;startSize=30;horizontalStack=0;resizeParent=1;resizeParentMax=0;resizeLast=0;collapsible=1;marginBottom=0;whiteSpace=wrap;html=1;" parent="1" vertex="1">
          <mxGeometry x="50" y="515.21" width="140" height="150" as="geometry" />
        </mxCell>
        <mxCell id="wojKNktllQG_u3DR9HlF-2" value="id" style="text;strokeColor=none;fillColor=none;align=left;verticalAlign=middle;spacingLeft=4;spacingRight=4;overflow=hidden;points=[[0,0.5],[1,0.5]];portConstraint=eastwest;rotatable=0;whiteSpace=wrap;html=1;" parent="wojKNktllQG_u3DR9HlF-1" vertex="1">
          <mxGeometry y="30" width="140" height="30" as="geometry" />
        </mxCell>
        <mxCell id="wojKNktllQG_u3DR9HlF-3" value="learner_id" style="text;strokeColor=none;fillColor=none;align=left;verticalAlign=middle;spacingLeft=4;spacingRight=4;overflow=hidden;points=[[0,0.5],[1,0.5]];portConstraint=eastwest;rotatable=0;whiteSpace=wrap;html=1;" parent="wojKNktllQG_u3DR9HlF-1" vertex="1">
          <mxGeometry y="60" width="140" height="30" as="geometry" />
        </mxCell>
        <mxCell id="wojKNktllQG_u3DR9HlF-4" value="teacher_id" style="text;strokeColor=none;fillColor=none;align=left;verticalAlign=middle;spacingLeft=4;spacingRight=4;overflow=hidden;points=[[0,0.5],[1,0.5]];portConstraint=eastwest;rotatable=0;whiteSpace=wrap;html=1;" parent="wojKNktllQG_u3DR9HlF-1" vertex="1">
          <mxGeometry y="90" width="140" height="30" as="geometry" />
        </mxCell>
        <mxCell id="wojKNktllQG_u3DR9HlF-12" value="post_id" style="text;strokeColor=none;fillColor=none;align=left;verticalAlign=middle;spacingLeft=4;spacingRight=4;overflow=hidden;points=[[0,0.5],[1,0.5]];portConstraint=eastwest;rotatable=0;whiteSpace=wrap;html=1;" parent="wojKNktllQG_u3DR9HlF-1" vertex="1">
          <mxGeometry y="120" width="140" height="30" as="geometry" />
        </mxCell>
        <mxCell id="wojKNktllQG_u3DR9HlF-5" value="" style="shape=link;html=1;rounded=0;entryX=1;entryY=0;entryDx=0;entryDy=0;exitX=0.478;exitY=1.154;exitDx=0;exitDy=0;exitPerimeter=0;" parent="1" source="wojKNktllQG_u3DR9HlF-12" target="f7bFVLpP6FKDPt4WR5Cf-17" edge="1">
          <mxGeometry relative="1" as="geometry">
            <mxPoint x="-49.159999999999854" y="350.0000000000001" as="sourcePoint" />
            <mxPoint x="-50" y="500.21000000000015" as="targetPoint" />
          </mxGeometry>
        </mxCell>
        <mxCell id="wojKNktllQG_u3DR9HlF-6" value="M" style="resizable=0;html=1;align=left;verticalAlign=bottom;" parent="wojKNktllQG_u3DR9HlF-5" connectable="0" vertex="1">
          <mxGeometry x="-1" relative="1" as="geometry" />
        </mxCell>
        <mxCell id="wojKNktllQG_u3DR9HlF-7" value="N" style="resizable=0;html=1;align=right;verticalAlign=bottom;" parent="wojKNktllQG_u3DR9HlF-5" connectable="0" vertex="1">
          <mxGeometry x="1" relative="1" as="geometry" />
        </mxCell>
        <mxCell id="wojKNktllQG_u3DR9HlF-10" value="" style="shape=link;html=1;rounded=0;entryX=0.5;entryY=0;entryDx=0;entryDy=0;exitX=1.038;exitY=1.211;exitDx=0;exitDy=0;exitPerimeter=0;" parent="1" source="f7bFVLpP6FKDPt4WR5Cf-4" target="wojKNktllQG_u3DR9HlF-1" edge="1">
          <mxGeometry relative="1" as="geometry">
            <mxPoint x="-60" y="270" as="sourcePoint" />
            <mxPoint x="100" y="270" as="targetPoint" />
          </mxGeometry>
        </mxCell>
        <mxCell id="wojKNktllQG_u3DR9HlF-11" value="1" style="resizable=0;html=1;align=right;verticalAlign=bottom;" parent="wojKNktllQG_u3DR9HlF-10" connectable="0" vertex="1">
          <mxGeometry x="1" relative="1" as="geometry">
            <mxPoint y="-15" as="offset" />
          </mxGeometry>
        </mxCell>
        <mxCell id="wojKNktllQG_u3DR9HlF-14" value="PostDetail" style="swimlane;fontStyle=0;childLayout=stackLayout;horizontal=1;startSize=30;horizontalStack=0;resizeParent=1;resizeParentMax=0;resizeLast=0;collapsible=1;marginBottom=0;whiteSpace=wrap;html=1;" parent="1" vertex="1">
          <mxGeometry x="-650" y="10" width="140" height="120" as="geometry" />
        </mxCell>
        <mxCell id="wojKNktllQG_u3DR9HlF-15" value="id" style="text;strokeColor=none;fillColor=none;align=left;verticalAlign=middle;spacingLeft=4;spacingRight=4;overflow=hidden;points=[[0,0.5],[1,0.5]];portConstraint=eastwest;rotatable=0;whiteSpace=wrap;html=1;" parent="wojKNktllQG_u3DR9HlF-14" vertex="1">
          <mxGeometry y="30" width="140" height="30" as="geometry" />
        </mxCell>
        <mxCell id="wojKNktllQG_u3DR9HlF-16" value="Item 2" style="text;strokeColor=none;fillColor=none;align=left;verticalAlign=middle;spacingLeft=4;spacingRight=4;overflow=hidden;points=[[0,0.5],[1,0.5]];portConstraint=eastwest;rotatable=0;whiteSpace=wrap;html=1;" parent="wojKNktllQG_u3DR9HlF-14" vertex="1">
          <mxGeometry y="60" width="140" height="30" as="geometry" />
        </mxCell>
        <mxCell id="wojKNktllQG_u3DR9HlF-17" value="Item 3" style="text;strokeColor=none;fillColor=none;align=left;verticalAlign=middle;spacingLeft=4;spacingRight=4;overflow=hidden;points=[[0,0.5],[1,0.5]];portConstraint=eastwest;rotatable=0;whiteSpace=wrap;html=1;" parent="wojKNktllQG_u3DR9HlF-14" vertex="1">
          <mxGeometry y="90" width="140" height="30" as="geometry" />
        </mxCell>
        <mxCell id="wojKNktllQG_u3DR9HlF-18" value="" style="shape=link;html=1;rounded=0;entryX=0.509;entryY=0.989;entryDx=0;entryDy=0;entryPerimeter=0;" parent="1" target="wojKNktllQG_u3DR9HlF-17" edge="1">
          <mxGeometry relative="1" as="geometry">
            <mxPoint x="-370" y="230" as="sourcePoint" />
            <mxPoint x="-190" y="90" as="targetPoint" />
          </mxGeometry>
        </mxCell>
        <mxCell id="wojKNktllQG_u3DR9HlF-19" value="1" style="resizable=0;html=1;align=right;verticalAlign=bottom;" parent="wojKNktllQG_u3DR9HlF-18" connectable="0" vertex="1">
          <mxGeometry x="1" relative="1" as="geometry" />
        </mxCell>
        <mxCell id="yP_wBHzrBIjpdv_ILNyv-1" value="learner" style="shape=umlActor;verticalLabelPosition=bottom;verticalAlign=top;html=1;outlineConnect=0;" parent="1" vertex="1">
          <mxGeometry x="30" y="1020" width="30" height="60" as="geometry" />
        </mxCell>
        <mxCell id="yP_wBHzrBIjpdv_ILNyv-2" value="teacher" style="shape=umlActor;verticalLabelPosition=bottom;verticalAlign=top;html=1;outlineConnect=0;" parent="1" vertex="1">
          <mxGeometry x="30" y="780" width="30" height="60" as="geometry" />
        </mxCell>
        <mxCell id="yP_wBHzrBIjpdv_ILNyv-3" value="" style="endArrow=classic;html=1;rounded=0;exitX=0.5;exitY=0;exitDx=0;exitDy=0;exitPerimeter=0;entryX=0.5;entryY=1;entryDx=0;entryDy=0;" parent="1" source="yP_wBHzrBIjpdv_ILNyv-1" target="yP_wBHzrBIjpdv_ILNyv-5" edge="1">
          <mxGeometry width="50" height="50" relative="1" as="geometry">
            <mxPoint x="130" y="930" as="sourcePoint" />
            <mxPoint x="180" y="880" as="targetPoint" />
          </mxGeometry>
        </mxCell>
        <mxCell id="yP_wBHzrBIjpdv_ILNyv-6" style="edgeStyle=orthogonalEdgeStyle;rounded=0;orthogonalLoop=1;jettySize=auto;html=1;exitX=0.5;exitY=0;exitDx=0;exitDy=0;" parent="1" source="yP_wBHzrBIjpdv_ILNyv-5" target="yP_wBHzrBIjpdv_ILNyv-2" edge="1">
          <mxGeometry relative="1" as="geometry" />
        </mxCell>
        <mxCell id="yP_wBHzrBIjpdv_ILNyv-5" value="teaching condition" style="rhombus;whiteSpace=wrap;html=1;" parent="1" vertex="1">
          <mxGeometry y="900" width="80" height="80" as="geometry" />
        </mxCell>
        <mxCell id="yP_wBHzrBIjpdv_ILNyv-8" value="" style="shape=link;html=1;rounded=0;entryX=0;entryY=0.5;entryDx=0;entryDy=0;exitX=0.483;exitY=0.903;exitDx=0;exitDy=0;exitPerimeter=0;" parent="1" source="f7bFVLpP6FKDPt4WR5Cf-8" target="f7bFVLpP6FKDPt4WR5Cf-19" edge="1">
          <mxGeometry relative="1" as="geometry">
            <mxPoint x="-939.1600000000001" y="740.0000000000001" as="sourcePoint" />
            <mxPoint x="-940" y="890.2100000000002" as="targetPoint" />
          </mxGeometry>
        </mxCell>
        <mxCell id="yP_wBHzrBIjpdv_ILNyv-9" value="M" style="resizable=0;html=1;align=left;verticalAlign=bottom;" parent="yP_wBHzrBIjpdv_ILNyv-8" connectable="0" vertex="1">
          <mxGeometry x="-1" relative="1" as="geometry" />
        </mxCell>
        <mxCell id="yP_wBHzrBIjpdv_ILNyv-10" value="N" style="resizable=0;html=1;align=right;verticalAlign=bottom;" parent="yP_wBHzrBIjpdv_ILNyv-8" connectable="0" vertex="1">
          <mxGeometry x="1" relative="1" as="geometry" />
        </mxCell>
        <mxCell id="yP_wBHzrBIjpdv_ILNyv-14" style="edgeStyle=orthogonalEdgeStyle;rounded=0;orthogonalLoop=1;jettySize=auto;html=1;exitX=1;exitY=0.5;exitDx=0;exitDy=0;entryX=0;entryY=0.5;entryDx=0;entryDy=0;" parent="1" source="yP_wBHzrBIjpdv_ILNyv-12" target="yP_wBHzrBIjpdv_ILNyv-13" edge="1">
          <mxGeometry relative="1" as="geometry" />
        </mxCell>
        <mxCell id="yP_wBHzrBIjpdv_ILNyv-12" value="Create Post" style="rounded=0;whiteSpace=wrap;html=1;" parent="1" vertex="1">
          <mxGeometry x="-30" y="-25" width="120" height="60" as="geometry" />
        </mxCell>
        <mxCell id="yP_wBHzrBIjpdv_ILNyv-17" style="edgeStyle=orthogonalEdgeStyle;rounded=0;orthogonalLoop=1;jettySize=auto;html=1;" parent="1" source="yP_wBHzrBIjpdv_ILNyv-13" target="yP_wBHzrBIjpdv_ILNyv-16" edge="1">
          <mxGeometry relative="1" as="geometry" />
        </mxCell>
        <mxCell id="yP_wBHzrBIjpdv_ILNyv-13" value="Teacher Applied" style="rounded=1;whiteSpace=wrap;html=1;" parent="1" vertex="1">
          <mxGeometry x="180" y="-25" width="120" height="60" as="geometry" />
        </mxCell>
        <mxCell id="yP_wBHzrBIjpdv_ILNyv-15" value="many" style="text;html=1;align=center;verticalAlign=middle;resizable=0;points=[];autosize=1;strokeColor=none;fillColor=none;" parent="1" vertex="1">
          <mxGeometry x="215" y="-60" width="50" height="30" as="geometry" />
        </mxCell>
        <mxCell id="yP_wBHzrBIjpdv_ILNyv-19" value="" style="edgeStyle=orthogonalEdgeStyle;rounded=0;orthogonalLoop=1;jettySize=auto;html=1;" parent="1" source="yP_wBHzrBIjpdv_ILNyv-16" target="yP_wBHzrBIjpdv_ILNyv-18" edge="1">
          <mxGeometry relative="1" as="geometry" />
        </mxCell>
        <mxCell id="yP_wBHzrBIjpdv_ILNyv-16" value="Learner Choose teacher" style="rounded=0;whiteSpace=wrap;html=1;" parent="1" vertex="1">
          <mxGeometry x="375" y="-25" width="120" height="60" as="geometry" />
        </mxCell>
        <mxCell id="yP_wBHzrBIjpdv_ILNyv-22" style="edgeStyle=orthogonalEdgeStyle;rounded=0;orthogonalLoop=1;jettySize=auto;html=1;" parent="1" source="yP_wBHzrBIjpdv_ILNyv-18" edge="1">
          <mxGeometry relative="1" as="geometry">
            <mxPoint x="635" y="95.00000000000023" as="targetPoint" />
          </mxGeometry>
        </mxCell>
        <mxCell id="yP_wBHzrBIjpdv_ILNyv-18" value="Notify to Teacher" style="rounded=0;whiteSpace=wrap;html=1;" parent="1" vertex="1">
          <mxGeometry x="575" y="-25" width="120" height="60" as="geometry" />
        </mxCell>
        <mxCell id="yP_wBHzrBIjpdv_ILNyv-27" style="edgeStyle=orthogonalEdgeStyle;rounded=0;orthogonalLoop=1;jettySize=auto;html=1;entryX=1;entryY=0.5;entryDx=0;entryDy=0;" parent="1" source="yP_wBHzrBIjpdv_ILNyv-23" target="yP_wBHzrBIjpdv_ILNyv-26" edge="1">
          <mxGeometry relative="1" as="geometry" />
        </mxCell>
        <mxCell id="yP_wBHzrBIjpdv_ILNyv-23" value="Teacher Response" style="rounded=0;whiteSpace=wrap;html=1;" parent="1" vertex="1">
          <mxGeometry x="575" y="95" width="120" height="60" as="geometry" />
        </mxCell>
        <mxCell id="yP_wBHzrBIjpdv_ILNyv-28" style="edgeStyle=orthogonalEdgeStyle;rounded=0;orthogonalLoop=1;jettySize=auto;html=1;" parent="1" source="yP_wBHzrBIjpdv_ILNyv-26" edge="1">
          <mxGeometry relative="1" as="geometry">
            <mxPoint x="435" y="235.00000000000023" as="targetPoint" />
          </mxGeometry>
        </mxCell>
        <mxCell id="yP_wBHzrBIjpdv_ILNyv-31" style="edgeStyle=orthogonalEdgeStyle;rounded=0;orthogonalLoop=1;jettySize=auto;html=1;entryX=1;entryY=0.5;entryDx=0;entryDy=0;" parent="1" source="yP_wBHzrBIjpdv_ILNyv-26" target="yP_wBHzrBIjpdv_ILNyv-32" edge="1">
          <mxGeometry relative="1" as="geometry">
            <mxPoint x="330" y="125.00000000000023" as="targetPoint" />
          </mxGeometry>
        </mxCell>
        <mxCell id="yP_wBHzrBIjpdv_ILNyv-26" value="Accept" style="rhombus;whiteSpace=wrap;html=1;" parent="1" vertex="1">
          <mxGeometry x="395" y="85" width="80" height="80" as="geometry" />
        </mxCell>
        <mxCell id="yP_wBHzrBIjpdv_ILNyv-29" value="Notify to Learner with Teacher info&lt;br&gt;Notify to Tacher with learner info" style="rounded=0;whiteSpace=wrap;html=1;" parent="1" vertex="1">
          <mxGeometry x="370" y="235" width="120" height="60" as="geometry" />
        </mxCell>
        <mxCell id="yP_wBHzrBIjpdv_ILNyv-30" value="yes" style="text;html=1;align=center;verticalAlign=middle;resizable=0;points=[];autosize=1;strokeColor=none;fillColor=none;" parent="1" vertex="1">
          <mxGeometry x="430" y="180" width="40" height="30" as="geometry" />
        </mxCell>
        <mxCell id="yP_wBHzrBIjpdv_ILNyv-32" value="Notify to Leaner" style="whiteSpace=wrap;html=1;" parent="1" vertex="1">
          <mxGeometry x="220" y="95" width="120" height="60" as="geometry" />
        </mxCell>
        <mxCell id="yP_wBHzrBIjpdv_ILNyv-33" value="no" style="text;html=1;align=center;verticalAlign=middle;resizable=0;points=[];autosize=1;strokeColor=none;fillColor=none;" parent="1" vertex="1">
          <mxGeometry x="350" y="100" width="40" height="30" as="geometry" />
        </mxCell>
        <mxCell id="yP_wBHzrBIjpdv_ILNyv-34" value="regular flow" style="swimlane;whiteSpace=wrap;html=1;" parent="1" vertex="1">
          <mxGeometry x="-70" y="-80" width="820" height="410" as="geometry" />
        </mxCell>
        <mxCell id="yP_wBHzrBIjpdv_ILNyv-40" value="" style="edgeStyle=orthogonalEdgeStyle;rounded=0;orthogonalLoop=1;jettySize=auto;html=1;" parent="1" source="yP_wBHzrBIjpdv_ILNyv-41" target="yP_wBHzrBIjpdv_ILNyv-43" edge="1">
          <mxGeometry relative="1" as="geometry" />
        </mxCell>
        <mxCell id="yP_wBHzrBIjpdv_ILNyv-41" value="Learner Choose teacher" style="rounded=0;whiteSpace=wrap;html=1;" parent="1" vertex="1">
          <mxGeometry x="1075" y="-35" width="120" height="60" as="geometry" />
        </mxCell>
        <mxCell id="yP_wBHzrBIjpdv_ILNyv-42" style="edgeStyle=orthogonalEdgeStyle;rounded=0;orthogonalLoop=1;jettySize=auto;html=1;" parent="1" source="yP_wBHzrBIjpdv_ILNyv-43" edge="1">
          <mxGeometry relative="1" as="geometry">
            <mxPoint x="1335" y="85.00000000000023" as="targetPoint" />
          </mxGeometry>
        </mxCell>
        <mxCell id="yP_wBHzrBIjpdv_ILNyv-43" value="Notify to Teacher" style="rounded=0;whiteSpace=wrap;html=1;" parent="1" vertex="1">
          <mxGeometry x="1275" y="-35" width="120" height="60" as="geometry" />
        </mxCell>
        <mxCell id="yP_wBHzrBIjpdv_ILNyv-44" style="edgeStyle=orthogonalEdgeStyle;rounded=0;orthogonalLoop=1;jettySize=auto;html=1;entryX=1;entryY=0.5;entryDx=0;entryDy=0;" parent="1" source="yP_wBHzrBIjpdv_ILNyv-45" target="yP_wBHzrBIjpdv_ILNyv-48" edge="1">
          <mxGeometry relative="1" as="geometry" />
        </mxCell>
        <mxCell id="yP_wBHzrBIjpdv_ILNyv-45" value="Teacher Response" style="rounded=0;whiteSpace=wrap;html=1;" parent="1" vertex="1">
          <mxGeometry x="1275" y="85" width="120" height="60" as="geometry" />
        </mxCell>
        <mxCell id="yP_wBHzrBIjpdv_ILNyv-46" style="edgeStyle=orthogonalEdgeStyle;rounded=0;orthogonalLoop=1;jettySize=auto;html=1;" parent="1" source="yP_wBHzrBIjpdv_ILNyv-48" edge="1">
          <mxGeometry relative="1" as="geometry">
            <mxPoint x="1135" y="225.00000000000023" as="targetPoint" />
          </mxGeometry>
        </mxCell>
        <mxCell id="yP_wBHzrBIjpdv_ILNyv-47" style="edgeStyle=orthogonalEdgeStyle;rounded=0;orthogonalLoop=1;jettySize=auto;html=1;entryX=1;entryY=0.5;entryDx=0;entryDy=0;" parent="1" source="yP_wBHzrBIjpdv_ILNyv-48" target="yP_wBHzrBIjpdv_ILNyv-51" edge="1">
          <mxGeometry relative="1" as="geometry">
            <mxPoint x="1030" y="115.00000000000023" as="targetPoint" />
          </mxGeometry>
        </mxCell>
        <mxCell id="yP_wBHzrBIjpdv_ILNyv-48" value="Accept" style="rhombus;whiteSpace=wrap;html=1;" parent="1" vertex="1">
          <mxGeometry x="1095" y="75" width="80" height="80" as="geometry" />
        </mxCell>
        <mxCell id="yP_wBHzrBIjpdv_ILNyv-49" value="Notify to Learner with Teacher info&lt;br&gt;Notify to Tacher with learner info" style="rounded=0;whiteSpace=wrap;html=1;" parent="1" vertex="1">
          <mxGeometry x="1070" y="225" width="120" height="60" as="geometry" />
        </mxCell>
        <mxCell id="yP_wBHzrBIjpdv_ILNyv-50" value="yes" style="text;html=1;align=center;verticalAlign=middle;resizable=0;points=[];autosize=1;strokeColor=none;fillColor=none;" parent="1" vertex="1">
          <mxGeometry x="1130" y="170" width="40" height="30" as="geometry" />
        </mxCell>
        <mxCell id="yP_wBHzrBIjpdv_ILNyv-51" value="Notify to Leaner" style="whiteSpace=wrap;html=1;" parent="1" vertex="1">
          <mxGeometry x="920" y="85" width="120" height="60" as="geometry" />
        </mxCell>
        <mxCell id="yP_wBHzrBIjpdv_ILNyv-52" value="no" style="text;html=1;align=center;verticalAlign=middle;resizable=0;points=[];autosize=1;strokeColor=none;fillColor=none;" parent="1" vertex="1">
          <mxGeometry x="1050" y="90" width="40" height="30" as="geometry" />
        </mxCell>
        <mxCell id="yP_wBHzrBIjpdv_ILNyv-53" value="request flow" style="swimlane;whiteSpace=wrap;html=1;" parent="1" vertex="1">
          <mxGeometry x="830" y="-80" width="590" height="410" as="geometry" />
        </mxCell>
      </root>
    </mxGraphModel>
  </diagram>
</mxfile>
